STARTFONT 2.1
FONT -WRI-Mathematica1-Medium-R-Normal--15-150-75-75-p-80-Adobe-FontSpecific
SIZE 15 75 75
FONTBOUNDINGBOX 25 17 -2 -3
STARTPROPERTIES 16
FOUNDRY "WRI"
FAMILY_NAME "Mathematica1"
WEIGHT_NAME "Medium"
SLANT "R"
SETWIDTH_NAME "Normal"
PIXEL_SIZE 15
POINT_SIZE 150
RESOLUTION_X 75
RESOLUTION_Y 75
SPACING "p"
AVERAGE_WIDTH 80
CHARSET_REGISTRY "Adobe"
CHARSET_ENCODING "FontSpecific"
FONT_DESCENT 3
FONT_ASCENT 14
DEFAULT_CHAR 32
ENDPROPERTIES
CHARS 224
STARTCHAR Space
ENCODING 32
SWIDTH 189 0
DWIDTH 3 0
BBX 0 0 0 0
BITMAP
ENDCHAR
STARTCHAR Exclamation
ENCODING 33
SWIDTH 333 0
DWIDTH 5 0
BBX 1 10 2 0
BITMAP
80
80
80
80
80
80
80
80
00
80
ENDCHAR
STARTCHAR ForAll
ENCODING 34
SWIDTH 587 0
DWIDTH 9 0
BBX 9 10 0 0
BITMAP
8080
4100
4100
4100
3e00
2200
1400
1400
1400
0800
ENDCHAR
STARTCHAR NumberSign
ENCODING 35
SWIDTH 622 0
DWIDTH 9 0
BBX 8 10 0 0
BITMAP
12
12
24
7f
24
24
fe
48
48
48
ENDCHAR
STARTCHAR Exists
ENCODING 36
SWIDTH 587 0
DWIDTH 9 0
BBX 7 10 1 0
BITMAP
fe
02
02
02
7e
02
02
02
02
fe
ENDCHAR
STARTCHAR Percent
ENCODING 37
SWIDTH 800 0
DWIDTH 12 0
BBX 11 10 0 0
BITMAP
3080
4900
8a00
9200
6400
04c0
0920
1220
1240
2180
ENDCHAR
STARTCHAR Ampersand
ENCODING 38
SWIDTH 778 0
DWIDTH 12 0
BBX 11 10 1 0
BITMAP
1800
2400
2400
2800
31c0
5080
8900
8600
c620
79c0
ENDCHAR
STARTCHAR SmallMember
ENCODING 39
SWIDTH 486 0
DWIDTH 7 0
BBX 5 7 1 0
BITMAP
f0
08
08
78
08
10
e0
ENDCHAR
STARTCHAR LParen
ENCODING 40
SWIDTH 321 0
DWIDTH 5 0
BBX 3 12 1 -2
BITMAP
20
40
40
80
80
80
80
80
80
40
40
20
ENDCHAR
STARTCHAR RParen
ENCODING 41
SWIDTH 321 0
DWIDTH 5 0
BBX 3 12 1 -2
BITMAP
80
40
40
20
20
20
20
20
20
40
40
80
ENDCHAR
STARTCHAR Star
ENCODING 42
SWIDTH 471 0
DWIDTH 7 0
BBX 5 6 1 0
BITMAP
20
a8
70
70
a8
20
ENDCHAR
STARTCHAR Plus
ENCODING 43
SWIDTH 644 0
DWIDTH 9 0
BBX 7 7 1 0
BITMAP
10
10
10
fe
10
10
10
ENDCHAR
STARTCHAR Comma
ENCODING 44
SWIDTH 250 0
DWIDTH 4 0
BBX 2 4 1 -2
BITMAP
c0
c0
40
80
ENDCHAR
STARTCHAR Minus
ENCODING 45
SWIDTH 644 0
DWIDTH 10 0
BBX 8 1 1 3
BITMAP
ff
ENDCHAR
STARTCHAR Period
ENCODING 46
SWIDTH 250 0
DWIDTH 4 0
BBX 1 2 1 0
BITMAP
80
80
ENDCHAR
STARTCHAR Slash
ENCODING 47
SWIDTH 317 0
DWIDTH 5 0
BBX 5 12 0 -2
BITMAP
08
10
10
10
20
20
20
40
40
40
80
80
ENDCHAR
STARTCHAR Zero
ENCODING 48
SWIDTH 500 0
DWIDTH 8 0
BBX 6 10 1 0
BITMAP
30
48
84
84
84
84
84
84
48
30
ENDCHAR
STARTCHAR One
ENCODING 49
SWIDTH 500 0
DWIDTH 8 0
BBX 3 10 2 0
BITMAP
40
c0
40
40
40
40
40
40
40
e0
ENDCHAR
STARTCHAR Two
ENCODING 50
SWIDTH 500 0
DWIDTH 8 0
BBX 7 10 0 0
BITMAP
38
4c
84
04
04
08
10
20
42
fc
ENDCHAR
STARTCHAR Three
ENCODING 51
SWIDTH 500 0
DWIDTH 8 0
BBX 6 10 1 0
BITMAP
70
88
08
10
38
04
04
04
88
f0
ENDCHAR
STARTCHAR Four
ENCODING 52
SWIDTH 500 0
DWIDTH 8 0
BBX 7 10 0 0
BITMAP
18
18
28
28
48
48
88
fe
08
08
ENDCHAR
STARTCHAR Five
ENCODING 53
SWIDTH 500 0
DWIDTH 8 0
BBX 6 10 1 0
BITMAP
7c
40
80
f0
08
04
04
04
88
f0
ENDCHAR
STARTCHAR Six
ENCODING 54
SWIDTH 500 0
DWIDTH 8 0
BBX 6 10 1 0
BITMAP
18
20
40
80
f8
84
84
84
44
38
ENDCHAR
STARTCHAR Seven
ENCODING 55
SWIDTH 500 0
DWIDTH 8 0
BBX 7 10 0 0
BITMAP
7e
82
04
04
08
08
08
10
10
20
ENDCHAR
STARTCHAR Eight
ENCODING 56
SWIDTH 500 0
DWIDTH 8 0
BBX 6 10 1 0
BITMAP
78
84
84
48
30
48
84
84
84
78
ENDCHAR
STARTCHAR Nine
ENCODING 57
SWIDTH 500 0
DWIDTH 8 0
BBX 6 10 1 0
BITMAP
70
88
84
84
84
7c
04
08
10
60
ENDCHAR
STARTCHAR Colon
ENCODING 58
SWIDTH 278 0
DWIDTH 4 0
BBX 1 7 1 0
BITMAP
80
80
00
00
00
80
80
ENDCHAR
STARTCHAR SemiColon
ENCODING 59
SWIDTH 278 0
DWIDTH 4 0
BBX 2 9 1 -2
BITMAP
80
80
00
00
00
c0
c0
40
80
ENDCHAR
STARTCHAR Less
ENCODING 60
SWIDTH 644 0
DWIDTH 10 0
BBX 8 7 1 0
BITMAP
01
0e
30
c0
70
0c
03
ENDCHAR
STARTCHAR Equal
ENCODING 61
SWIDTH 645 0
DWIDTH 10 0
BBX 8 4 1 2
BITMAP
ff
00
00
ff
ENDCHAR
STARTCHAR Greater
ENCODING 62
SWIDTH 644 0
DWIDTH 10 0
BBX 8 7 1 0
BITMAP
80
70
0c
03
0e
30
c0
ENDCHAR
STARTCHAR Question
ENCODING 63
SWIDTH 444 0
DWIDTH 7 0
BBX 5 10 2 0
BITMAP
70
88
88
08
10
20
20
00
60
60
ENDCHAR
STARTCHAR TildeFullEqual
ENCODING 64
SWIDTH 644 0
DWIDTH 10 0
BBX 8 7 1 0
BITMAP
61
d3
8e
00
ff
00
ff
ENDCHAR
STARTCHAR CapAlpha
ENCODING 65
SWIDTH 724 0
DWIDTH 11 0
BBX 9 10 1 0
BITMAP
0800
1400
1400
1400
2200
2200
3e00
4100
4100
e380
ENDCHAR
STARTCHAR CapBeta
ENCODING 66
SWIDTH 639 0
DWIDTH 10 0
BBX 8 10 1 0
BITMAP
fe
41
41
42
7c
42
41
41
41
fe
ENDCHAR
STARTCHAR CapChi
ENCODING 67
SWIDTH 725 0
DWIDTH 11 0
BBX 10 10 0 0
BITMAP
f1c0
2080
1100
0a00
0400
0c00
1200
2100
4080
e3c0
ENDCHAR
STARTCHAR CapDelta
ENCODING 68
SWIDTH 636 0
DWIDTH 10 0
BBX 9 10 0 0
BITMAP
0800
1400
1400
1400
2200
2200
4100
4100
4100
ff80
ENDCHAR
STARTCHAR CapEpsilon
ENCODING 69
SWIDTH 628 0
DWIDTH 9 0
BBX 9 10 0 0
BITMAP
ff00
4100
4000
4200
7e00
4200
4000
4080
4180
ff00
ENDCHAR
STARTCHAR CapPhi
ENCODING 70
SWIDTH 637 0
DWIDTH 10 0
BBX 9 10 0 0
BITMAP
1c00
0800
3e00
4900
8880
8880
4900
3e00
0800
1c00
ENDCHAR
STARTCHAR CapGamma
ENCODING 71
SWIDTH 592 0
DWIDTH 9 0
BBX 8 10 0 0
BITMAP
ff
41
40
40
40
40
40
40
40
e0
ENDCHAR
STARTCHAR CapEta
ENCODING 72
SWIDTH 730 0
DWIDTH 11 0
BBX 9 10 1 0
BITMAP
e380
4100
4100
4100
7f00
4100
4100
4100
4100
e380
ENDCHAR
STARTCHAR CapIota
ENCODING 73
SWIDTH 351 0
DWIDTH 5 0
BBX 3 10 1 0
BITMAP
e0
40
40
40
40
40
40
40
40
e0
ENDCHAR
STARTCHAR CurlyTheta
ENCODING 74
SWIDTH 494 0
DWIDTH 7 0
BBX 7 10 0 0
BITMAP
08
14
14
14
4c
8a
88
88
90
60
ENDCHAR
STARTCHAR CapKappa
ENCODING 75
SWIDTH 734 0
DWIDTH 11 0
BBX 10 10 1 0
BITMAP
e780
4200
4400
4800
5000
6800
4400
4200
4100
e7c0
ENDCHAR
STARTCHAR CapLambda
ENCODING 76
SWIDTH 716 0
DWIDTH 11 0
BBX 9 10 1 0
BITMAP
0800
1400
1400
1400
2200
2200
2200
4100
4100
e380
ENDCHAR
STARTCHAR CapMu
ENCODING 77
SWIDTH 883 0
DWIDTH 13 0
BBX 12 10 1 0
BITMAP
c030
6060
6060
50a0
50a0
4920
4920
4920
4620
e670
ENDCHAR
STARTCHAR CapNu
ENCODING 78
SWIDTH 727 0
DWIDTH 11 0
BBX 9 10 1 0
BITMAP
c380
6100
6100
5100
4900
4900
4500
4300
4300
e100
ENDCHAR
STARTCHAR CapOmicron
ENCODING 79
SWIDTH 687 0
DWIDTH 10 0
BBX 9 10 0 0
BITMAP
1c00
6300
4100
8080
8080
8080
8080
4100
6300
1c00
ENDCHAR
STARTCHAR CapPi
ENCODING 80
SWIDTH 727 0
DWIDTH 11 0
BBX 9 10 1 0
BITMAP
ff80
4100
4100
4100
4100
4100
4100
4100
4100
e380
ENDCHAR
STARTCHAR CapTheta
ENCODING 81
SWIDTH 687 0
DWIDTH 10 0
BBX 9 10 0 0
BITMAP
1c00
6300
4100
9480
9c80
9480
8080
4100
6300
1c00
ENDCHAR
STARTCHAR CapRho
ENCODING 82
SWIDTH 564 0
DWIDTH 8 0
BBX 8 10 0 0
BITMAP
fc
42
41
41
42
7c
40
40
40
e0
ENDCHAR
STARTCHAR CapSigma
ENCODING 83
SWIDTH 572 0
DWIDTH 9 0
BBX 8 10 0 0
BITMAP
ff
43
21
10
08
08
10
21
41
ff
ENDCHAR
STARTCHAR CapTau
ENCODING 84
SWIDTH 604 0
DWIDTH 9 0
BBX 9 10 0 0
BITMAP
ff80
8880
8880
0800
0800
0800
0800
0800
0800
1c00
ENDCHAR
STARTCHAR CapUpsilon
ENCODING 85
SWIDTH 684 0
DWIDTH 10 0
BBX 10 10 0 0
BITMAP
c1c0
2200
1400
1400
0800
0800
0800
0800
0800
3e00
ENDCHAR
STARTCHAR FinalSigma
ENCODING 86
SWIDTH 473 0
DWIDTH 7 0
BBX 6 10 1 -3
BITMAP
38
4c
80
80
80
60
10
08
08
30
ENDCHAR
STARTCHAR CapOmega
ENCODING 87
SWIDTH 748 0
DWIDTH 11 0
BBX 11 10 0 0
BITMAP
1f00
2080
4040
4040
4040
4040
4040
2080
9120
f1e0
ENDCHAR
STARTCHAR CapXi
ENCODING 88
SWIDTH 615 0
DWIDTH 9 0
BBX 8 10 0 0
BITMAP
ff
81
81
24
3c
24
00
81
81
ff
ENDCHAR
STARTCHAR CapPsi
ENCODING 89
SWIDTH 616 0
DWIDTH 9 0
BBX 9 10 0 0
BITMAP
1c00
8880
4900
4900
4900
3e00
0800
0800
0800
1c00
ENDCHAR
STARTCHAR CapZeta
ENCODING 90
SWIDTH 635 0
DWIDTH 10 0
BBX 8 10 0 0
BITMAP
7f
41
42
04
08
10
20
41
81
ff
ENDCHAR
STARTCHAR LBracket
ENCODING 91
SWIDTH 333 0
DWIDTH 5 0
BBX 3 12 1 -2
BITMAP
e0
80
80
80
80
80
80
80
80
80
80
e0
ENDCHAR
STARTCHAR Therefore
ENCODING 92
SWIDTH 629 0
DWIDTH 9 0
BBX 8 7 1 0
BITMAP
18
18
00
00
00
c3
c3
ENDCHAR
STARTCHAR RBracket
ENCODING 93
SWIDTH 333 0
DWIDTH 5 0
BBX 3 12 1 -2
BITMAP
e0
20
20
20
20
20
20
20
20
20
20
e0
ENDCHAR
STARTCHAR Perpendicular
ENCODING 94
SWIDTH 712 0
DWIDTH 11 0
BBX 9 8 1 0
BITMAP
0800
0800
0800
0800
0800
0800
0800
ff80
ENDCHAR
STARTCHAR Underbar
ENCODING 95
SWIDTH 580 0
DWIDTH 9 0
BBX 7 1 1 -2
BITMAP
fe
ENDCHAR
STARTCHAR Hat
ENCODING 96
SWIDTH 312 0
DWIDTH 5 0
BBX 5 3 0 0
BITMAP
20
50
88
ENDCHAR
STARTCHAR Alpha
ENCODING 97
SWIDTH 593 0
DWIDTH 9 0
BBX 8 7 1 0
BITMAP
39
46
86
84
84
8a
7c
ENDCHAR
STARTCHAR Beta
ENCODING 98
SWIDTH 508 0
DWIDTH 8 0
BBX 9 13 -1 -3
BITMAP
0700
0880
1080
1100
1600
2100
2100
2100
6200
5c00
4000
4000
8000
ENDCHAR
STARTCHAR Chi
ENCODING 99
SWIDTH 555 0
DWIDTH 8 0
BBX 10 10 -2 -3
BITMAP
1840
0880
0900
0600
0400
0c00
1400
2400
4500
8200
ENDCHAR
STARTCHAR Delta
ENCODING 100
SWIDTH 465 0
DWIDTH 7 0
BBX 7 10 0 0
BITMAP
0e
12
10
38
44
84
84
84
88
70
ENDCHAR
STARTCHAR Epsilon
ENCODING 101
SWIDTH 390 0
DWIDTH 6 0
BBX 5 7 0 0
BITMAP
38
40
80
f8
80
80
78
ENDCHAR
STARTCHAR Phi
ENCODING 102
SWIDTH 550 0
DWIDTH 8 0
BBX 8 13 0 -3
BITMAP
04
04
04
1e
29
49
89
92
94
78
10
20
20
ENDCHAR
STARTCHAR Gamma
ENCODING 103
SWIDTH 518 0
DWIDTH 8 0
BBX 8 10 0 -3
BITMAP
71
99
0a
0a
0c
08
08
10
30
20
ENDCHAR
STARTCHAR Eta
ENCODING 104
SWIDTH 495 0
DWIDTH 7 0
BBX 7 10 0 -3
BITMAP
ce
72
44
44
44
84
88
08
08
08
ENDCHAR
STARTCHAR Iota
ENCODING 105
SWIDTH 284 0
DWIDTH 4 0
BBX 3 7 1 0
BITMAP
40
40
40
80
80
a0
c0
ENDCHAR
STARTCHAR CurlyPhi
ENCODING 106
SWIDTH 569 0
DWIDTH 9 0
BBX 8 10 0 -3
BITMAP
46
89
89
89
91
92
7c
20
20
20
ENDCHAR
STARTCHAR Kappa
ENCODING 107
SWIDTH 434 0
DWIDTH 7 0
BBX 7 7 0 0
BITMAP
22
2c
50
70
50
88
8c
ENDCHAR
STARTCHAR Lambda
ENCODING 108
SWIDTH 514 0
DWIDTH 8 0
BBX 7 10 0 0
BITMAP
60
10
08
08
18
28
28
48
8a
84
ENDCHAR
STARTCHAR Mu
ENCODING 109
SWIDTH 535 0
DWIDTH 8 0
BBX 9 10 -1 -3
BITMAP
1100
1100
2100
2200
2200
2680
5b00
4000
4000
c000
ENDCHAR
STARTCHAR Nu
ENCODING 110
SWIDTH 460 0
DWIDTH 7 0
BBX 7 7 0 0
BITMAP
c2
62
24
28
28
30
20
ENDCHAR
STARTCHAR Omicron
ENCODING 111
SWIDTH 478 0
DWIDTH 7 0
BBX 7 7 0 0
BITMAP
1c
22
42
82
84
88
70
ENDCHAR
STARTCHAR Pi
ENCODING 112
SWIDTH 524 0
DWIDTH 8 0
BBX 9 7 0 0
BITMAP
3f80
5200
1200
2400
2400
4400
c600
ENDCHAR
STARTCHAR Theta
ENCODING 113
SWIDTH 439 0
DWIDTH 7 0
BBX 6 10 0 0
BITMAP
18
24
44
44
84
fc
88
88
90
60
ENDCHAR
STARTCHAR Rho
ENCODING 114
SWIDTH 508 0
DWIDTH 8 0
BBX 8 10 -1 -3
BITMAP
0e
11
21
21
22
62
7c
40
80
80
ENDCHAR
STARTCHAR Sigma
ENCODING 115
SWIDTH 679 0
DWIDTH 10 0
BBX 9 7 1 0
BITMAP
3f80
4400
8400
8400
8800
8800
7000
ENDCHAR
STARTCHAR Tau
ENCODING 116
SWIDTH 474 0
DWIDTH 7 0
BBX 7 7 0 0
BITMAP
7e
90
10
20
20
20
30
ENDCHAR
STARTCHAR Upsilon
ENCODING 117
SWIDTH 525 0
DWIDTH 8 0
BBX 8 7 0 0
BITMAP
e1
23
21
42
42
44
38
ENDCHAR
STARTCHAR CurlyPi
ENCODING 118
SWIDTH 822 0
DWIDTH 12 0
BBX 13 7 0 0
BITMAP
3ff8
5020
9020
2220
2220
2640
1980
ENDCHAR
STARTCHAR Omega
ENCODING 119
SWIDTH 691 0
DWIDTH 10 0
BBX 9 7 0 0
BITMAP
2100
4080
8880
8880
8880
9900
6600
ENDCHAR
STARTCHAR Xi
ENCODING 120
SWIDTH 437 0
DWIDTH 7 0
BBX 8 13 0 -3
BITMAP
09
0f
10
20
20
1c
60
80
80
70
08
08
70
ENDCHAR
STARTCHAR Psi
ENCODING 121
SWIDTH 617 0
DWIDTH 9 0
BBX 9 13 0 -3
BITMAP
0400
0c00
0800
8880
4900
4a00
9200
9200
9400
7800
2000
2000
2000
ENDCHAR
STARTCHAR Zeta
ENCODING 122
SWIDTH 421 0
DWIDTH 6 0
BBX 7 13 0 -3
BITMAP
12
1c
10
20
20
40
80
80
80
70
08
08
70
ENDCHAR
STARTCHAR LBrace
ENCODING 123
SWIDTH 328 0
DWIDTH 5 0
BBX 3 12 1 -2
BITMAP
20
40
40
40
40
40
80
40
40
40
40
20
ENDCHAR
STARTCHAR VertBar
ENCODING 124
SWIDTH 200 0
DWIDTH 3 0
BBX 1 12 1 -2
BITMAP
80
80
80
80
80
80
80
80
80
80
80
80
ENDCHAR
STARTCHAR RBrace
ENCODING 125
SWIDTH 328 0
DWIDTH 5 0
BBX 3 12 1 -2
BITMAP
80
40
40
40
40
40
20
40
40
40
40
80
ENDCHAR
STARTCHAR Tilde
ENCODING 126
SWIDTH 644 0
DWIDTH 10 0
BBX 8 3 1 2
BITMAP
61
d3
8e
ENDCHAR
STARTCHAR DEL
ENCODING 127
SWIDTH 189 0
DWIDTH 3 0
BBX 0 0 0 0
BITMAP
ENDCHAR
STARTCHAR FractionBarExt
ENCODING 128
SWIDTH 165 0
DWIDTH 2 0
BBX 2 1 0 3
BITMAP
c0
ENDCHAR
STARTCHAR EscapeChar
ENCODING 129
SWIDTH 297 0
DWIDTH 4 0
BBX 3 9 1 -2
BITMAP
e0
00
00
00
e0
00
00
00
e0
ENDCHAR
STARTCHAR SelectPlaceholder
ENCODING 130
SWIDTH 595 0
DWIDTH 9 0
BBX 7 7 1 0
BITMAP
fe
fe
fe
fe
fe
fe
fe
ENDCHAR
STARTCHAR Placeholder
ENCODING 131
SWIDTH 589 0
DWIDTH 9 0
BBX 7 7 1 0
BITMAP
fe
82
82
82
82
82
fe
ENDCHAR
STARTCHAR Continuation
ENCODING 132
SWIDTH 533 0
DWIDTH 8 0
BBX 6 10 1 0
BITMAP
c0
c0
00
00
30
30
00
00
0c
0c
ENDCHAR
STARTCHAR Skeleton
ENCODING 133
SWIDTH 333 0
DWIDTH 5 0
BBX 4 2 1 2
BITMAP
f0
f0
ENDCHAR
STARTCHAR LSkeleton
ENCODING 134
SWIDTH 1000 0
DWIDTH 15 0
BBX 13 7 1 0
BITMAP
0108
0e70
3180
c600
7380
0c60
0318
ENDCHAR
STARTCHAR RSkeleton
ENCODING 135
SWIDTH 1000 0
DWIDTH 15 0
BBX 13 7 1 0
BITMAP
8400
7380
0c60
0318
0e70
3180
c600
ENDCHAR
STARTCHAR Spacer
ENCODING 136
SWIDTH 250 0
DWIDTH 4 0
BBX 3 2 0 -2
BITMAP
a0
e0
ENDCHAR
STARTCHAR Cross
ENCODING 137
SWIDTH 522 0
DWIDTH 8 0
BBX 5 5 1 1
BITMAP
88
50
20
50
88
ENDCHAR
STARTCHAR DblEqual
ENCODING 138
SWIDTH 806 0
DWIDTH 12 0
BBX 11 4 1 2
BITMAP
fbe0
0000
0000
fbe0
ENDCHAR
STARTCHAR Grave
ENCODING 139
SWIDTH 224 0
DWIDTH 3 0
BBX 3 3 0 1
BITMAP
80
40
20
ENDCHAR
STARTCHAR Acute
ENCODING 140
SWIDTH 224 0
DWIDTH 3 0
BBX 3 3 0 1
BITMAP
20
40
80
ENDCHAR
STARTCHAR DoubleAcute
ENCODING 141
SWIDTH 364 0
DWIDTH 5 0
BBX 5 3 0 1
BITMAP
28
50
a0
ENDCHAR
STARTCHAR OverTilde
ENCODING 142
SWIDTH 331 0
DWIDTH 5 0
BBX 5 2 0 1
BITMAP
48
b0
ENDCHAR
STARTCHAR OverBar
ENCODING 143
SWIDTH 312 0
DWIDTH 5 0
BBX 5 1 0 1
BITMAP
f8
ENDCHAR
STARTCHAR DblUpDownArrow
ENCODING 144
SWIDTH 629 0
DWIDTH 9 0
BBX 8 14 1 -1
BITMAP
18
24
66
a5
24
24
24
24
24
24
a5
66
24
18
ENDCHAR
STARTCHAR DblUpExtens1
ENCODING 145
SWIDTH 629 0
DWIDTH 9 0
BBX 4 6 3 -1
BITMAP
90
90
90
90
90
90
ENDCHAR
STARTCHAR DblLongLArrow
ENCODING 146
SWIDTH 1377 0
DWIDTH 21 0
BBX 19 8 1 0
BITMAP
100000
200000
7fffe0
800000
800000
7fffe0
200000
100000
ENDCHAR
STARTCHAR DblExtens
ENCODING 147
SWIDTH 448 0
DWIDTH 7 0
BBX 5 4 1 2
BITMAP
f8
00
00
f8
ENDCHAR
STARTCHAR DblLongRArrow
ENCODING 148
SWIDTH 1377 0
DWIDTH 21 0
BBX 19 8 1 0
BITMAP
000100
000080
ffffc0
000020
000020
ffffc0
000080
000100
ENDCHAR
STARTCHAR DblLRArrow2
ENCODING 149
SWIDTH 1110 0
DWIDTH 17 0
BBX 15 8 1 0
BITMAP
1010
2008
7ffc
8002
8002
7ffc
2008
1010
ENDCHAR
STARTCHAR DblLongLRArrow
ENCODING 150
SWIDTH 1606 0
DWIDTH 24 0
BBX 22 8 1 0
BITMAP
100020
200010
7ffff8
800004
800004
7ffff8
200010
100020
ENDCHAR
STARTCHAR UpDownArrow
ENCODING 151
SWIDTH 533 0
DWIDTH 8 0
BBX 7 13 1 0
BITMAP
10
38
54
92
10
10
10
10
10
92
54
38
10
ENDCHAR
STARTCHAR LongLArrow
ENCODING 152
SWIDTH 1374 0
DWIDTH 21 0
BBX 19 7 1 0
BITMAP
100000
200000
400000
ffffe0
400000
200000
100000
ENDCHAR
STARTCHAR LongRArrow
ENCODING 153
SWIDTH 1382 0
DWIDTH 21 0
BBX 19 7 1 0
BITMAP
000100
000080
000040
ffffe0
000040
000080
000100
ENDCHAR
STARTCHAR LongLRArrow
ENCODING 154
SWIDTH 1605 0
DWIDTH 24 0
BBX 22 7 1 0
BITMAP
100020
200010
400008
fffffc
400008
200010
100020
ENDCHAR
STARTCHAR ColonEqual
ENCODING 155
SWIDTH 837 0
DWIDTH 13 0
BBX 11 4 1 2
BITMAP
9fe0
0000
0000
9fe0
ENDCHAR
STARTCHAR Diamond2
ENCODING 156
SWIDTH 512 0
DWIDTH 8 0
BBX 7 7 0 1
BITMAP
10
28
44
82
44
28
10
ENDCHAR
STARTCHAR NotSquareSprsetEqual
ENCODING 157
SWIDTH 657 0
DWIDTH 10 0
BBX 8 9 1 -1
BITMAP
fc
02
01
01
01
02
fc
00
ff
ENDCHAR
STARTCHAR AtSign
ENCODING 158
SWIDTH 685 0
DWIDTH 10 0
BBX 8 8 1 0
BITMAP
3c
42
9d
a5
a5
be
42
3c
ENDCHAR
STARTCHAR Solidmedsqr
ENCODING 159
SWIDTH 519 0
DWIDTH 8 0
BBX 6 6 1 1
BITMAP
fc
fc
fc
fc
fc
fc
ENDCHAR
STARTCHAR OverDot
ENCODING 160
SWIDTH 100 0
DWIDTH 2 0
BBX 1 1 0 1
BITMAP
80
ENDCHAR
STARTCHAR CurlyCapUpsilon
ENCODING 161
SWIDTH 648 0
DWIDTH 10 0
BBX 9 10 0 0
BITMAP
c300
2480
1900
0800
0800
0800
0800
0800
0800
3e00
ENDCHAR
STARTCHAR Prime
ENCODING 162
SWIDTH 347 0
DWIDTH 5 0
BBX 4 6 1 1
BITMAP
30
30
60
40
c0
80
ENDCHAR
STARTCHAR LessEqual
ENCODING 163
SWIDTH 644 0
DWIDTH 10 0
BBX 8 7 1 0
BITMAP
03
1c
e0
1c
03
00
ff
ENDCHAR
STARTCHAR Fraction
ENCODING 164
SWIDTH 520 0
DWIDTH 8 0
BBX 8 10 0 0
BITMAP
01
02
04
04
08
10
20
20
40
80
ENDCHAR
STARTCHAR Infinity
ENCODING 165
SWIDTH 853 0
DWIDTH 13 0
BBX 11 6 1 0
BITMAP
71c0
8a20
8420
8420
8a20
71c0
ENDCHAR
STARTCHAR RuleDelayed
ENCODING 166
SWIDTH 802 0
DWIDTH 12 0
BBX 10 7 1 0
BITMAP
0100
8080
0040
3fc0
0040
8080
0100
ENDCHAR
STARTCHAR ClubSuit
ENCODING 167
SWIDTH 578 0
DWIDTH 9 0
BBX 8 8 1 0
BITMAP
18
3c
3c
7e
ff
ff
56
10
ENDCHAR
STARTCHAR DiamondSuit
ENCODING 168
SWIDTH 531 0
DWIDTH 8 0
BBX 7 9 0 0
BITMAP
10
10
28
44
82
44
28
10
10
ENDCHAR
STARTCHAR HeartSuit
ENCODING 169
SWIDTH 605 0
DWIDTH 9 0
BBX 9 8 0 0
BITMAP
7700
8880
8080
8080
4100
2200
1400
0800
ENDCHAR
STARTCHAR SpadeSuit
ENCODING 170
SWIDTH 542 0
DWIDTH 8 0
BBX 7 8 1 0
BITMAP
10
38
38
7c
fe
fe
54
10
ENDCHAR
STARTCHAR LRArrow
ENCODING 171
SWIDTH 973 0
DWIDTH 15 0
BBX 13 7 1 0
BITMAP
1040
2020
4010
fff8
4010
2020
1040
ENDCHAR
STARTCHAR LArrow
ENCODING 172
SWIDTH 822 0
DWIDTH 12 0
BBX 10 7 1 0
BITMAP
1000
2000
4000
ffc0
4000
2000
1000
ENDCHAR
STARTCHAR UpArrow
ENCODING 173
SWIDTH 533 0
DWIDTH 8 0
BBX 7 10 1 0
BITMAP
10
38
54
92
10
10
10
10
10
10
ENDCHAR
STARTCHAR RArrow
ENCODING 174
SWIDTH 822 0
DWIDTH 12 0
BBX 10 7 1 0
BITMAP
0200
0100
0080
ffc0
0080
0100
0200
ENDCHAR
STARTCHAR DownArrow
ENCODING 175
SWIDTH 533 0
DWIDTH 8 0
BBX 7 10 1 0
BITMAP
10
10
10
10
10
10
92
54
38
10
ENDCHAR
STARTCHAR Degree
ENCODING 176
SWIDTH 364 0
DWIDTH 5 0
BBX 5 5 0 5
BITMAP
70
88
88
88
70
ENDCHAR
STARTCHAR PlusMinus
ENCODING 177
SWIDTH 644 0
DWIDTH 10 0
BBX 7 9 2 0
BITMAP
10
10
10
fe
10
10
10
00
fe
ENDCHAR
STARTCHAR DoublePrime
ENCODING 178
SWIDTH 589 0
DWIDTH 9 0
BBX 7 6 1 1
BITMAP
36
36
6c
48
d8
90
ENDCHAR
STARTCHAR GreaterEqual
ENCODING 179
SWIDTH 644 0
DWIDTH 10 0
BBX 8 7 1 0
BITMAP
c0
38
07
38
c0
00
ff
ENDCHAR
STARTCHAR Multiply
ENCODING 180
SWIDTH 642 0
DWIDTH 10 0
BBX 7 7 1 0
BITMAP
82
44
28
10
28
44
82
ENDCHAR
STARTCHAR Proportional
ENCODING 181
SWIDTH 670 0
DWIDTH 10 0
BBX 9 6 1 0
BITMAP
7380
8c00
8800
8800
9400
6380
ENDCHAR
STARTCHAR PartialDiff
ENCODING 182
SWIDTH 512 0
DWIDTH 8 0
BBX 7 10 0 0
BITMAP
1c
22
02
02
3e
42
82
84
88
70
ENDCHAR
STARTCHAR Bullet
ENCODING 183
SWIDTH 314 0
DWIDTH 5 0
BBX 4 4 0 2
BITMAP
60
f0
f0
60
ENDCHAR
STARTCHAR Divide
ENCODING 184
SWIDTH 644 0
DWIDTH 10 0
BBX 8 8 1 -1
BITMAP
18
18
00
ff
00
00
18
18
ENDCHAR
STARTCHAR NotEqual
ENCODING 185
SWIDTH 644 0
DWIDTH 10 0
BBX 8 10 1 -1
BITMAP
04
04
08
ff
08
10
ff
10
20
20
ENDCHAR
STARTCHAR Equivalence
ENCODING 186
SWIDTH 644 0
DWIDTH 10 0
BBX 8 5 1 1
BITMAP
ff
00
ff
00
ff
ENDCHAR
STARTCHAR Approxequal
ENCODING 187
SWIDTH 644 0
DWIDTH 10 0
BBX 8 6 1 0
BITMAP
61
d3
8e
61
d3
8e
ENDCHAR
STARTCHAR Ellipsis
ENCODING 188
SWIDTH 1000 0
DWIDTH 15 0
BBX 11 1 2 0
BITMAP
8420
ENDCHAR
STARTCHAR ArrowVertEx
ENCODING 189
SWIDTH 533 0
DWIDTH 8 0
BBX 1 5 4 0
BITMAP
80
80
80
80
80
ENDCHAR
STARTCHAR ArrowHorizEx
ENCODING 190
SWIDTH 324 0
DWIDTH 5 0
BBX 5 1 0 3
BITMAP
f8
ENDCHAR
STARTCHAR CarriageReturn
ENCODING 191
SWIDTH 628 0
DWIDTH 9 0
BBX 8 10 0 0
BITMAP
01
01
01
11
21
41
ff
40
20
10
ENDCHAR
STARTCHAR Aleph
ENCODING 192
SWIDTH 639 0
DWIDTH 10 0
BBX 8 11 1 0
BITMAP
82
82
c3
e3
74
7c
9c
8e
c7
c3
c1
ENDCHAR
STARTCHAR IFraktur
ENCODING 193
SWIDTH 318 0
DWIDTH 5 0
BBX 4 10 1 0
BITMAP
f0
20
60
60
60
60
60
60
40
e0
ENDCHAR
STARTCHAR RFraktur
ENCODING 194
SWIDTH 690 0
DWIDTH 10 0
BBX 9 11 0 0
BITMAP
3e00
d300
3100
3100
3200
3e00
3300
3300
3100
2180
7980
ENDCHAR
STARTCHAR Weierstrass
ENCODING 195
SWIDTH 624 0
DWIDTH 9 0
BBX 8 10 1 -3
BITMAP
06
69
d1
a1
a1
52
bc
a0
a0
40
ENDCHAR
STARTCHAR CircleMultiply
ENCODING 196
SWIDTH 797 0
DWIDTH 12 0
BBX 10 10 1 -1
BITMAP
1e00
2100
6180
9240
8c40
8c40
9240
6180
2100
1e00
ENDCHAR
STARTCHAR CirclePlus
ENCODING 197
SWIDTH 797 0
DWIDTH 12 0
BBX 10 10 1 -1
BITMAP
1e00
2500
4480
8440
ffc0
8440
8440
4480
2500
1e00
ENDCHAR
STARTCHAR EmptySet
ENCODING 198
SWIDTH 722 0
DWIDTH 11 0
BBX 9 14 1 -2
BITMAP
0200
0200
1c00
6700
4500
8880
8880
8880
9080
5100
7300
1c00
2000
2000
ENDCHAR
STARTCHAR Union
ENCODING 199
SWIDTH 715 0
DWIDTH 11 0
BBX 8 10 1 0
BITMAP
81
81
81
81
81
81
81
81
42
3c
ENDCHAR
STARTCHAR Intersection
ENCODING 200
SWIDTH 715 0
DWIDTH 11 0
BBX 8 11 1 0
BITMAP
3c
42
81
81
81
81
81
81
81
81
81
ENDCHAR
STARTCHAR ProperSuperset
ENCODING 201
SWIDTH 657 0
DWIDTH 10 0
BBX 8 7 1 0
BITMAP
fc
02
01
01
01
02
fc
ENDCHAR
STARTCHAR NbSpace
ENCODING 202
SWIDTH 189 0
DWIDTH 3 0
BBX 0 0 0 0
BITMAP
ENDCHAR
STARTCHAR NotSubset
ENCODING 203
SWIDTH 657 0
DWIDTH 10 0
BBX 8 11 1 -2
BITMAP
04
04
3f
48
88
90
90
50
3f
20
20
ENDCHAR
STARTCHAR ProperSubset
ENCODING 204
SWIDTH 657 0
DWIDTH 10 0
BBX 8 7 1 0
BITMAP
3f
40
80
80
80
40
3f
ENDCHAR
STARTCHAR ReflexSubset
ENCODING 205
SWIDTH 657 0
DWIDTH 10 0
BBX 8 9 1 -1
BITMAP
3f
40
80
80
80
40
3f
00
ff
ENDCHAR
STARTCHAR Element
ENCODING 206
SWIDTH 657 0
DWIDTH 10 0
BBX 8 7 1 0
BITMAP
3f
40
80
ff
80
40
3f
ENDCHAR
STARTCHAR NotElement
ENCODING 207
SWIDTH 657 0
DWIDTH 10 0
BBX 8 11 1 -2
BITMAP
04
04
3f
48
88
ff
90
50
3f
20
20
ENDCHAR
STARTCHAR Angle
ENCODING 208
SWIDTH 486 0
DWIDTH 7 0
BBX 5 8 1 0
BITMAP
20
20
40
40
40
40
80
f8
ENDCHAR
STARTCHAR Gradient
ENCODING 209
SWIDTH 664 0
DWIDTH 10 0
BBX 9 10 0 0
BITMAP
ff80
4100
4100
4100
2200
2200
1400
1400
1400
0800
ENDCHAR
STARTCHAR RegTM
ENCODING 210
SWIDTH 757 0
DWIDTH 11 0
BBX 10 10 1 0
BITMAP
1e00
6180
7e80
9240
9240
9c40
9640
7b80
6180
1e00
ENDCHAR
STARTCHAR Copyright
ENCODING 211
SWIDTH 757 0
DWIDTH 11 0
BBX 10 10 1 0
BITMAP
1e00
6180
5e80
a240
a040
a040
a240
5c80
6180
1e00
ENDCHAR
STARTCHAR TM
ENCODING 212
SWIDTH 980 0
DWIDTH 15 0
BBX 14 6 1 4
BITMAP
fb8c
a998
2158
2168
2168
73bc
ENDCHAR
STARTCHAR Product
ENCODING 213
SWIDTH 797 0
DWIDTH 12 0
BBX 9 11 1 0
BITMAP
ff80
4100
4100
4100
4100
4100
4100
4100
4100
4100
e380
ENDCHAR
STARTCHAR Radical
ENCODING 214
SWIDTH 781 0
DWIDTH 12 0
BBX 11 15 0 -3
BITMAP
0020
0020
0040
0040
0040
1080
3080
7880
9900
0d00
0d00
0600
0600
0200
0200
ENDCHAR
STARTCHAR DotMath
ENCODING 215
SWIDTH 239 0
DWIDTH 4 0
BBX 1 1 1 4
BITMAP
80
ENDCHAR
STARTCHAR LogicalNot
ENCODING 216
SWIDTH 640 0
DWIDTH 10 0
BBX 8 4 1 1
BITMAP
ff
01
01
01
ENDCHAR
STARTCHAR Wedge
ENCODING 217
SWIDTH 611 0
DWIDTH 9 0
BBX 7 10 1 0
BITMAP
10
30
28
28
28
44
44
44
82
82
ENDCHAR
STARTCHAR Vee
ENCODING 218
SWIDTH 611 0
DWIDTH 9 0
BBX 7 10 1 0
BITMAP
82
82
44
44
44
28
28
28
28
10
ENDCHAR
STARTCHAR DblLRArrow
ENCODING 219
SWIDTH 1110 0
DWIDTH 17 0
BBX 15 8 1 0
BITMAP
1010
2008
7ffc
8002
8002
7ffc
2008
1010
ENDCHAR
STARTCHAR DblLArrow
ENCODING 220
SWIDTH 822 0
DWIDTH 12 0
BBX 10 8 1 0
BITMAP
1000
2000
7fc0
8000
8000
7fc0
2000
1000
ENDCHAR
STARTCHAR DblUpArrow
ENCODING 221
SWIDTH 629 0
DWIDTH 9 0
BBX 8 10 1 0
BITMAP
18
24
66
a5
24
24
24
24
24
24
ENDCHAR
STARTCHAR DblRArrow
ENCODING 222
SWIDTH 822 0
DWIDTH 12 0
BBX 10 8 1 0
BITMAP
0200
0100
ff80
0040
0040
ff80
0100
0200
ENDCHAR
STARTCHAR DblDownArrow
ENCODING 223
SWIDTH 629 0
DWIDTH 9 0
BBX 8 10 1 0
BITMAP
24
24
24
24
24
24
a5
66
24
18
ENDCHAR
STARTCHAR Lozenge
ENCODING 224
SWIDTH 453 0
DWIDTH 7 0
BBX 5 9 1 0
BITMAP
20
20
50
50
88
50
50
20
20
ENDCHAR
STARTCHAR LAngle
ENCODING 225
SWIDTH 363 0
DWIDTH 5 0
BBX 4 12 1 -2
BITMAP
10
20
20
40
40
80
80
40
40
20
20
10
ENDCHAR
STARTCHAR Diffd
ENCODING 226
SWIDTH 570 0
DWIDTH 9 0
BBX 10 10 0 0
BITMAP
07c0
0280
0280
1c80
2500
4500
8900
8a00
9a80
6f00
ENDCHAR
STARTCHAR Expe
ENCODING 227
SWIDTH 520 0
DWIDTH 8 0
BBX 6 7 1 0
BITMAP
3c
54
a8
b0
a0
a8
70
ENDCHAR
STARTCHAR Imagi
ENCODING 228
SWIDTH 328 0
DWIDTH 5 0
BBX 5 10 1 0
BITMAP
20
20
00
f0
50
50
a0
a0
a8
f0
ENDCHAR
STARTCHAR Sum
ENCODING 229
SWIDTH 684 0
DWIDTH 10 0
BBX 8 11 1 0
BITMAP
ff
43
21
10
10
08
10
20
21
43
ff
ENDCHAR
STARTCHAR LParenTop
ENCODING 230
SWIDTH 400 0
DWIDTH 6 0
BBX 5 13 1 -1
BITMAP
08
10
20
40
40
40
80
80
80
80
80
80
80
ENDCHAR
STARTCHAR LParenEx
ENCODING 231
SWIDTH 400 0
DWIDTH 6 0
BBX 1 6 1 -1
BITMAP
80
80
80
80
80
80
ENDCHAR
STARTCHAR LParenBot
ENCODING 232
SWIDTH 400 0
DWIDTH 6 0
BBX 5 13 1 0
BITMAP
80
80
80
80
80
80
80
40
40
40
20
10
08
ENDCHAR
STARTCHAR LBracketTop
ENCODING 233
SWIDTH 363 0
DWIDTH 5 0
BBX 4 3 1 -1
BITMAP
f0
80
80
ENDCHAR
STARTCHAR LBracketEx
ENCODING 234
SWIDTH 363 0
DWIDTH 5 0
BBX 1 6 1 -1
BITMAP
80
80
80
80
80
80
ENDCHAR
STARTCHAR LBracketBot
ENCODING 235
SWIDTH 363 0
DWIDTH 5 0
BBX 4 3 1 0
BITMAP
80
80
f0
ENDCHAR
STARTCHAR LBraceTop
ENCODING 236
SWIDTH 552 0
DWIDTH 8 0
BBX 4 10 3 -1
BITMAP
10
20
40
40
80
80
80
80
80
80
ENDCHAR
STARTCHAR LBraceMid
ENCODING 237
SWIDTH 552 0
DWIDTH 8 0
BBX 4 12 0 -2
BITMAP
10
10
10
10
20
40
80
40
20
10
10
10
ENDCHAR
STARTCHAR LBraceBot
ENCODING 238
SWIDTH 552 0
DWIDTH 8 0
BBX 4 11 3 0
BITMAP
80
80
80
80
80
80
80
40
40
20
10
ENDCHAR
STARTCHAR BraceEx
ENCODING 239
SWIDTH 552 0
DWIDTH 8 0
BBX 1 6 3 -1
BITMAP
80
80
80
80
80
80
ENDCHAR
STARTCHAR Slot
ENCODING 240
SWIDTH 710 0
DWIDTH 11 0
BBX 10 10 0 0
BITMAP
2100
2100
ffc0
2100
2100
2100
2100
2100
ffc0
2100
ENDCHAR
STARTCHAR RAngle
ENCODING 241
SWIDTH 363 0
DWIDTH 5 0
BBX 4 12 0 -2
BITMAP
80
40
40
20
20
10
10
20
20
40
40
80
ENDCHAR
STARTCHAR Intergral
ENCODING 242
SWIDTH 668 0
DWIDTH 10 0
BBX 8 16 1 -2
BITMAP
07
0d
08
08
08
18
18
18
18
18
18
10
10
10
b0
e0
ENDCHAR
STARTCHAR IntegralTop
ENCODING 243
SWIDTH 976 0
DWIDTH 15 0
BBX 11 14 3 -2
BITMAP
0060
0060
0060
0060
0060
0060
0040
00c0
00c0
00c0
c080
e100
e200
3c00
ENDCHAR
STARTCHAR IntegralEx
ENCODING 244
SWIDTH 976 0
DWIDTH 15 0
BBX 2 11 12 0
BITMAP
c0
c0
c0
c0
c0
c0
c0
c0
c0
c0
c0
ENDCHAR
STARTCHAR IntegralBot
ENCODING 245
SWIDTH 976 0
DWIDTH 15 0
BBX 11 14 12 0
BITMAP
0780
08e0
10e0
3060
6000
6000
6000
4000
c000
c000
c000
c000
c000
c000
ENDCHAR
STARTCHAR RParenTop
ENCODING 246
SWIDTH 400 0
DWIDTH 6 0
BBX 5 13 0 -1
BITMAP
80
40
20
20
10
10
10
08
08
08
08
08
08
ENDCHAR
STARTCHAR RParenEx
ENCODING 247
SWIDTH 400 0
DWIDTH 6 0
BBX 1 6 4 -1
BITMAP
80
80
80
80
80
80
ENDCHAR
STARTCHAR RParenBot
ENCODING 248
SWIDTH 400 0
DWIDTH 6 0
BBX 5 13 0 0
BITMAP
08
08
08
08
08
08
10
10
10
20
20
40
80
ENDCHAR
STARTCHAR RBracketTop
ENCODING 249
SWIDTH 363 0
DWIDTH 5 0
BBX 4 3 0 -1
BITMAP
f0
10
10
ENDCHAR
STARTCHAR RBracketEx
ENCODING 250
SWIDTH 363 0
DWIDTH 5 0
BBX 1 6 3 -1
BITMAP
80
80
80
80
80
80
ENDCHAR
STARTCHAR RBracketBot
ENCODING 251
SWIDTH 363 0
DWIDTH 5 0
BBX 4 3 0 0
BITMAP
10
10
f0
ENDCHAR
STARTCHAR RBraceTop
ENCODING 252
SWIDTH 552 0
DWIDTH 8 0
BBX 4 10 1 -1
BITMAP
80
40
20
20
10
10
10
10
10
10
ENDCHAR
STARTCHAR RBraceMid
ENCODING 253
SWIDTH 552 0
DWIDTH 8 0
BBX 4 12 4 -2
BITMAP
80
80
80
80
40
20
10
20
40
80
80
80
ENDCHAR
STARTCHAR RBraceBot
ENCODING 254
SWIDTH 552 0
DWIDTH 8 0
BBX 4 11 1 0
BITMAP
10
10
10
10
10
10
20
20
20
40
80
ENDCHAR
STARTCHAR Wolf
ENCODING 255
SWIDTH 924 0
DWIDTH 14 0
BBX 13 13 0 -3
BITMAP
0200
0280
0380
0700
0500
0880
0bc0
0820
1610
17f8
2200
6200
c200
ENDCHAR
ENDFONT
